<?xml version="1.0" standalone="no"?><!DOCTYPE svg PUBLIC "-//W3C//DTD SVG 1.1//EN" "http://www.w3.org/Graphics/SVG/1.1/DTD/svg11.dtd"><svg t="1652507752728" class="icon" viewBox="0 0 1024 1024" version="1.1" xmlns="http://www.w3.org/2000/svg" p-id="7062" width="1024" height="1024" xmlns:xlink="http://www.w3.org/1999/xlink"><defs><style type="text/css"></style></defs><path d="M906.554 330.746l-242.4-242.8c-5.8-5.8-13.7-9.1-21.9-9.1h-387.9c-80.6 0.1-145.9 65.4-145.9 146.1v574.2c0.1 80.5 65.3 145.8 145.9 146h515.3c80.6-0.1 145.9-65.4 145.9-146.1v-446.4c0-8.2-3.2-16.1-9-21.9z" fill="#958DFE" p-id="7063"></path><path d="M664.554 514.546l-152.1-190.2-152.1 190.2h95v181.8h114.1v-181.8h95.1z" fill="#FFFFFF" p-id="7064"></path><path d="M906.654 330.646h-147.1c-53.8 0-97.5-43.6-97.5-97.5v-147.1l123.9 122.4 120.7 122.2z" fill="#C6C9FF" p-id="7065"></path></svg>